<svg width="56" height="57" viewBox="0 0 56 57" fill="none" xmlns="http://www.w3.org/2000/svg">
<g clip-path="url(#clip0_107_193)">
<mask id="mask0_107_193" style="mask-type:luminance" maskUnits="userSpaceOnUse" x="0" y="0" width="56" height="57">
<path d="M44 0.75H12C5.37258 0.75 0 6.12258 0 12.75V44.75C0 51.3774 5.37258 56.75 12 56.75H44C50.6274 56.75 56 51.3774 56 44.75V12.75C56 6.12258 50.6274 0.75 44 0.75Z" fill="white"/>
</mask>
<g mask="url(#mask0_107_193)">
<g filter="url(#filter0_dddd_107_193)">
<path d="M56 0.75H0V56.75H56V0.75Z" fill="#5200FF"/>
<path fill-rule="evenodd" clip-rule="evenodd" d="M25.2472 13.8463C23.447 14.1711 21.2289 15.0773 19.6217 16.1439C17.2709 17.7043 14.8357 20.8352 13.8916 23.5111L13.607 24.3174L14.2141 24.2566C14.7369 24.2039 14.8717 24.0665 15.1846 23.2669C16.3027 20.4097 18.9814 17.5792 21.8986 16.1723C25.9789 14.2042 30.0874 14.2136 34.1476 16.2C35.697 16.9582 36.2868 17.3903 37.6881 18.7934C40.1687 21.2775 41.3081 23.5677 41.7784 27.0151C42.0819 29.2387 41.9815 29.5775 41.0198 29.5775H40.2668L40.1707 27.6693C39.8025 20.3725 32.7265 15.0379 25.4386 16.5627C22.8143 17.1118 19.2238 19.3597 18.3874 20.9773C17.8823 21.9541 18.0136 22.8766 18.7649 23.6279L19.4303 24.2933H25.9083C29.4711 24.2933 32.3862 24.2601 32.3862 24.2194C32.3862 24.1789 31.8797 23.7295 31.2609 23.2209C30.642 22.7122 30.076 22.1392 30.0034 21.9474C29.8297 21.4889 30.3434 20.7706 30.845 20.7706C31.1986 20.7706 35.0599 23.7287 35.6643 24.4624C36.1228 25.0194 35.9469 25.7437 35.175 26.4749C33.7636 27.8124 31.1697 29.7732 30.8121 29.7732C30.352 29.7732 29.8565 29.0753 29.9802 28.6019C30.0324 28.402 30.6054 27.8132 31.2536 27.2934L32.4322 26.3483L23.6512 26.2904C13.9926 26.2266 14.0472 26.2205 13.3399 27.4178C12.3608 29.0753 13.6004 34.1099 15.7367 37.1518C20.2343 43.5559 28.9548 45.4619 35.6359 41.5006C37.1818 40.5841 39.4587 38.398 40.4916 36.8388C41.2042 35.763 42.3673 33.3877 42.3673 33.0082C42.3673 32.9513 42.1103 32.9045 41.7964 32.9045C41.2966 32.9045 41.1817 33.0188 40.8746 33.8228C39.908 36.3542 37.0877 39.4803 34.5934 40.7857C32.2224 42.0263 30.6685 42.395 27.8849 42.377C25.7957 42.3635 25.21 42.286 23.8729 41.8456C21.6232 41.1047 19.985 40.079 18.1929 38.289C15.6551 35.7546 14.1853 32.3685 14.1853 29.0569V27.6204H14.9416H15.6976L15.7995 29.4307C16.0841 34.4866 19.5847 38.8575 24.5579 40.3666C26.286 40.8909 29.1136 40.9771 30.8205 40.5573C33.271 39.9545 36.2994 38.0777 37.4666 36.4384C38.279 35.2976 37.9034 33.6016 36.7311 33.1168C36.3696 32.9673 34.1975 32.9147 29.8582 32.9503L23.514 33.0024L24.633 33.8656C26.0433 34.9536 26.2541 35.318 25.8394 35.9511C25.6677 36.2129 25.3661 36.4272 25.1691 36.4272C24.753 36.4272 20.5521 33.0732 20.2415 32.4929C19.8255 31.7156 20.1268 31.2694 22.3072 29.4336C24.7205 27.4018 25.1826 27.1795 25.7705 27.7674C26.3335 28.3306 26.112 28.7815 24.726 29.8931L23.5333 30.8496L32.3692 30.9004C42.1344 30.9568 42.0434 30.9672 42.6838 29.7287C43.1779 28.7733 42.9564 25.9856 42.2156 23.8366C40.4192 18.6249 35.9154 14.768 30.5289 13.8288C28.466 13.4689 27.3166 13.4729 25.2472 13.8463Z" fill="#D4ED72"/>
</g>
</g>
</g>
<defs>
<filter id="filter0_dddd_107_193" x="-24" y="-7.25" width="104" height="104" filterUnits="userSpaceOnUse" color-interpolation-filters="sRGB">
<feFlood flood-opacity="0" result="BackgroundImageFix"/>
<feColorMatrix in="SourceAlpha" type="matrix" values="0 0 0 0 0 0 0 0 0 0 0 0 0 0 0 0 0 0 127 0" result="hardAlpha"/>
<feOffset dy="8"/>
<feGaussianBlur stdDeviation="4"/>
<feColorMatrix type="matrix" values="0 0 0 0 0 0 0 0 0 0.733333 0 0 0 0 1 0 0 0 0.12 0"/>
<feBlend mode="normal" in2="BackgroundImageFix" result="effect1_dropShadow_107_193"/>
<feColorMatrix in="SourceAlpha" type="matrix" values="0 0 0 0 0 0 0 0 0 0 0 0 0 0 0 0 0 0 127 0" result="hardAlpha"/>
<feOffset dy="16"/>
<feGaussianBlur stdDeviation="12"/>
<feColorMatrix type="matrix" values="0 0 0 0 0 0 0 0 0 0.733333 0 0 0 0 1 0 0 0 0.24 0"/>
<feBlend mode="normal" in2="effect1_dropShadow_107_193" result="effect2_dropShadow_107_193"/>
<feColorMatrix in="SourceAlpha" type="matrix" values="0 0 0 0 0 0 0 0 0 0 0 0 0 0 0 0 0 0 127 0" result="hardAlpha"/>
<feOffset dy="2"/>
<feGaussianBlur stdDeviation="2"/>
<feColorMatrix type="matrix" values="0 0 0 0 0.0392157 0 0 0 0 0.27451 0 0 0 0 0.321569 0 0 0 0.12 0"/>
<feBlend mode="normal" in2="effect2_dropShadow_107_193" result="effect3_dropShadow_107_193"/>
<feColorMatrix in="SourceAlpha" type="matrix" values="0 0 0 0 0 0 0 0 0 0 0 0 0 0 0 0 0 0 127 0" result="hardAlpha"/>
<feOffset/>
<feGaussianBlur stdDeviation="0.5"/>
<feColorMatrix type="matrix" values="0 0 0 0 0 0 0 0 0 0.733333 0 0 0 0 1 0 0 0 0.24 0"/>
<feBlend mode="normal" in2="effect3_dropShadow_107_193" result="effect4_dropShadow_107_193"/>
<feBlend mode="normal" in="SourceGraphic" in2="effect4_dropShadow_107_193" result="shape"/>
</filter>
<clipPath id="clip0_107_193">
<rect width="56" height="56" fill="white" transform="translate(0 0.75)"/>
</clipPath>
</defs>
</svg>
