<svg width="41" height="40" viewBox="0 0 41 40" fill="none" xmlns="http://www.w3.org/2000/svg">
<path d="M0.220703 8C0.220703 3.58172 3.80243 0 8.2207 0H32.2207C36.639 0 40.2207 3.58172 40.2207 8V32C40.2207 36.4183 36.639 40 32.2207 40H8.2207C3.80242 40 0.220703 36.4183 0.220703 32V8Z" fill="#ECFEFF" fill-opacity="0.05"/>
<path d="M18.2206 24.3333H22.2206H18.2206ZM16.6206 13.3333H23.8206C24.1939 13.3333 24.3806 13.3333 24.5232 13.4059C24.6487 13.4698 24.7507 13.5718 24.8146 13.6973C24.8872 13.8399 24.8872 14.0266 24.8872 14.3999V15.7829C24.8872 16.1091 24.8872 16.2721 24.8504 16.4256C24.8177 16.5616 24.7639 16.6917 24.6908 16.811C24.6083 16.9455 24.493 17.0608 24.2624 17.2914L22.3082 19.2457C22.0442 19.5097 21.9122 19.6417 21.8627 19.7939C21.8192 19.9278 21.8192 20.072 21.8627 20.2059C21.9122 20.3582 22.0442 20.4902 22.3082 20.7542L24.2624 22.7084C24.493 22.939 24.6083 23.0543 24.6908 23.1889C24.7639 23.3082 24.8177 23.4382 24.8504 23.5743C24.8872 23.7277 24.8872 23.8908 24.8872 24.2169V25.5999C24.8872 25.9733 24.8872 26.16 24.8146 26.3026C24.7507 26.428 24.6487 26.53 24.5232 26.5939C24.3806 26.6666 24.1939 26.6666 23.8206 26.6666H16.6206C16.2473 26.6666 16.0606 26.6666 15.918 26.5939C15.7925 26.53 15.6905 26.428 15.6266 26.3026C15.554 26.16 15.554 25.9733 15.554 25.5999V24.2169C15.554 23.8908 15.554 23.7277 15.5908 23.5743C15.6235 23.4382 15.6773 23.3082 15.7504 23.1889C15.8329 23.0543 15.9482 22.939 16.1788 22.7084L18.133 20.7542C18.3971 20.4902 18.5291 20.3582 18.5785 20.2059C18.622 20.072 18.622 19.9278 18.5785 19.7939C18.5291 19.6417 18.3971 19.5097 18.133 19.2457L16.1788 17.2914C15.9482 17.0608 15.8329 16.9455 15.7504 16.811C15.6773 16.6917 15.6235 16.5616 15.5908 16.4256C15.554 16.2721 15.554 16.1091 15.554 15.7829V14.3999C15.554 14.0266 15.554 13.8399 15.6266 13.6973C15.6905 13.5718 15.7925 13.4698 15.918 13.4059C16.0606 13.3333 16.2473 13.3333 16.6206 13.3333Z" fill="#D9D9D9"/>
</svg>
