<svg width="25" height="25" viewBox="0 0 25 25" fill="none" xmlns="http://www.w3.org/2000/svg">
<mask id="mask0_10_64" style="mask-type:alpha" maskUnits="userSpaceOnUse" x="0" y="0" width="25" height="25">
<rect x="0.396805" y="0.820129" width="24" height="24" fill="#D9D9D9"/>
</mask>
<g mask="url(#mask0_10_64)">
<path d="M8.3968 20.8201H16.3968V17.8201C16.3968 16.7201 16.0051 15.7785 15.2218 14.9951C14.4385 14.2118 13.4968 13.8201 12.3968 13.8201C11.2968 13.8201 10.3551 14.2118 9.57181 14.9951C8.78847 15.7785 8.3968 16.7201 8.3968 17.8201V20.8201ZM12.3968 11.8201C13.4968 11.8201 14.4385 11.4285 15.2218 10.6451C16.0051 9.8618 16.3968 8.92013 16.3968 7.82013V4.82013H8.3968V7.82013C8.3968 8.92013 8.78847 9.8618 9.57181 10.6451C10.3551 11.4285 11.2968 11.8201 12.3968 11.8201ZM4.3968 22.8201V20.8201H6.3968V17.8201C6.3968 16.8035 6.6343 15.8493 7.1093 14.9576C7.5843 14.066 8.24681 13.3535 9.09681 12.8201C8.24681 12.2868 7.5843 11.5743 7.1093 10.6826C6.6343 9.79096 6.3968 8.8368 6.3968 7.82013V4.82013H4.3968V2.82013H20.3968V4.82013H18.3968V7.82013C18.3968 8.8368 18.1593 9.79096 17.6843 10.6826C17.2093 11.5743 16.5468 12.2868 15.6968 12.8201C16.5468 13.3535 17.2093 14.066 17.6843 14.9576C18.1593 15.8493 18.3968 16.8035 18.3968 17.8201V20.8201H20.3968V22.8201H4.3968Z" fill="white"/>
</g>
</svg>
