<svg xmlns="http://www.w3.org/2000/svg" width="32" height="32" viewBox="0 0 32 32" fill="none">
<path d="M0 16C0 7.16344 7.16344 0 16 0C24.8366 0 32 7.16344 32 16C32 24.8366 24.8366 32 16 32C7.16344 32 0 24.8366 0 16Z" fill="#060910"/>
<path d="M1.5 16C1.5 7.99187 7.99187 1.5 16 1.5C24.0081 1.5 30.5 7.99187 30.5 16C30.5 24.0081 24.0081 30.5 16 30.5C7.99187 30.5 1.5 24.0081 1.5 16Z" stroke="#162125" stroke-opacity="0.75" stroke-width="3" fill="#060910"/>
<path d="M12.0104 12.48V19.99H13.2704V12.48L15.1604 14.37L16.0505 13.4799L13.0859 10.5145C12.8398 10.2693 12.4411 10.2693 12.195 10.5145L9.23047 13.4799L10.1205 14.37L12.0104 12.48Z" fill="white" fill-opacity="0.5"/>
<path d="M19.9902 19.52V12.01H18.7302V19.52L16.8402 17.63L15.9502 18.5201L18.9148 21.4855C19.1609 21.7308 19.5595 21.7308 19.8056 21.4855L22.7702 18.5201L21.8802 17.63L19.9902 19.52Z" fill="white" fill-opacity="0.5"/>
</svg>