<svg width="17" height="16" viewBox="0 0 17 16" fill="none" xmlns="http://www.w3.org/2000/svg">
<mask id="mask0_53_472" style="mask-type:luminance" maskUnits="userSpaceOnUse" x="2" y="1" width="14" height="14">
<path d="M3.8282 11.0001C2.8282 11.8401 2.49487 14.3334 2.49487 14.3334C2.49487 14.3334 4.9882 14.0001 5.8282 13.0001C6.30153 12.4401 6.29487 11.5801 5.7682 11.0601C5.50907 10.8128 5.16773 10.6698 4.80968 10.6588C4.45164 10.6477 4.10212 10.7692 3.8282 11.0001Z" fill="white"/>
<path d="M8.82812 10.0001L6.82812 8.00008C7.18288 7.0797 7.6296 6.19746 8.16146 5.36675C8.93825 4.12474 10.0199 3.10212 11.3035 2.39614C12.5871 1.69017 14.0299 1.32433 15.4948 1.33342C15.4948 3.14675 14.9748 6.33342 11.4948 8.66675C10.6527 9.19923 9.75936 9.64591 8.82812 10.0001Z" fill="white"/>
<path d="M6.8282 8.00009H3.49487C3.49487 8.00009 3.86153 5.98009 4.8282 5.33343C5.9082 4.61343 8.16153 5.33343 8.16153 5.33343" fill="white"/>
<path d="M8.82812 10.0001V13.3334C8.82812 13.3334 10.8482 12.9668 11.4948 12.0001C12.2148 10.9201 11.4948 8.66675 11.4948 8.66675" fill="white"/>
</mask>
<g mask="url(#mask0_53_472)">
<path d="M3.82822 11.0001L4.47141 11.7658L4.47264 11.7648L3.82822 11.0001ZM2.49489 14.3334L1.5037 14.2009C1.46241 14.5098 1.56745 14.8202 1.78778 15.0405C2.00811 15.2609 2.31855 15.3659 2.6274 15.3246L2.49489 14.3334ZM5.82822 13.0001L5.06448 12.3545L5.06251 12.3569L5.82822 13.0001ZM5.76822 11.0601L6.47081 10.3485C6.46679 10.3445 6.46274 10.3406 6.45866 10.3367L5.76822 11.0601ZM8.16155 5.36675L9.00377 5.90599L9.00939 5.89701L8.16155 5.36675ZM15.4949 1.33342H16.4949C16.4949 0.783553 16.051 0.336847 15.5011 0.333436L15.4949 1.33342ZM3.49489 8.00008L2.51096 7.82148C2.45801 8.11319 2.53723 8.41335 2.72723 8.64094C2.91722 8.86853 3.19841 9.00008 3.49489 9.00008V8.00008ZM4.82822 5.33342L4.27352 4.50137L4.2722 4.50225L4.82822 5.33342ZM7.85719 6.28597C8.38327 6.45407 8.94601 6.16387 9.11411 5.63778C9.2822 5.1117 8.992 4.54896 8.46592 4.38086L7.85719 6.28597ZM8.82822 13.3334H7.82822C7.82822 13.6299 7.95977 13.9111 8.18736 14.1011C8.41495 14.2911 8.71511 14.3703 9.00682 14.3173L8.82822 13.3334ZM11.4949 12.0001L12.3261 12.5561L12.327 12.5548L11.4949 12.0001ZM3.18503 10.2344C2.78294 10.5721 2.50013 11.0256 2.29947 11.4364C2.09322 11.8586 1.93889 12.309 1.82511 12.7067C1.71042 13.1077 1.63097 13.4765 1.58014 13.7442C1.5546 13.8787 1.53595 13.9895 1.52349 14.0681C1.51725 14.1074 1.51255 14.1388 1.50928 14.1613C1.50765 14.1725 1.50637 14.1815 1.50545 14.1882C1.50498 14.1915 1.50461 14.1942 1.50432 14.1964C1.50417 14.1974 1.50405 14.1983 1.50395 14.1991C1.50389 14.1995 1.50374 14.2006 1.5037 14.2009C1.50368 14.2011 1.50371 14.2009 1.5037 14.2009C1.50367 14.2011 1.5037 14.2009 2.49489 14.3334C3.48607 14.4659 3.48605 14.4661 3.48603 14.4662C3.48602 14.4663 3.48604 14.4661 3.48603 14.4662C3.48607 14.4659 3.4861 14.4657 3.4863 14.4643C3.48669 14.4615 3.48741 14.4564 3.48846 14.4491C3.49057 14.4346 3.494 14.4117 3.49883 14.3812C3.5085 14.3202 3.52371 14.2296 3.54504 14.1172C3.58796 13.8912 3.65435 13.5841 3.74799 13.2568C3.84255 12.9262 3.95905 12.5957 4.09655 12.3142C4.23964 12.0212 4.3735 11.848 4.47141 11.7658L3.18503 10.2344ZM2.49489 14.3334C2.6274 15.3246 2.62722 15.3247 2.6274 15.3246C2.62725 15.3246 2.62748 15.3246 2.6274 15.3246C2.6277 15.3246 2.62883 15.3244 2.62921 15.3244C2.62997 15.3243 2.63089 15.3241 2.63195 15.324C2.63408 15.3237 2.63681 15.3233 2.64013 15.3229C2.64677 15.3219 2.65577 15.3207 2.667 15.319C2.68946 15.3158 2.72088 15.311 2.76023 15.3048C2.83885 15.2923 2.94959 15.2737 3.08413 15.2482C3.35183 15.1973 3.72061 15.1179 4.12156 15.0032C4.51932 14.8894 4.96965 14.7351 5.39191 14.5288C5.8027 14.3282 6.25617 14.0454 6.59392 13.6433L5.06251 12.3569C4.98027 12.4548 4.80707 12.5887 4.51412 12.7318C4.23262 12.8693 3.90211 12.9858 3.57154 13.0803C3.24416 13.174 2.93711 13.2403 2.71105 13.2833C2.59872 13.3046 2.50811 13.3198 2.44709 13.3295C2.41663 13.3343 2.39366 13.3377 2.37918 13.3398C2.37195 13.3409 2.36684 13.3416 2.364 13.342C2.36258 13.3422 2.36172 13.3423 2.36144 13.3424C2.36128 13.3424 2.3613 13.3424 2.36144 13.3424C2.3616 13.3424 2.36238 13.3422 2.49489 14.3334ZM6.59195 13.6456C7.3773 12.7165 7.39628 11.2622 6.47081 10.3485L5.06563 11.7717C5.1935 11.8979 5.2258 12.1637 5.06448 12.3545L6.59195 13.6456ZM6.45866 10.3367C6.02123 9.91919 5.44502 9.67794 4.84062 9.65925L4.77879 11.6583C4.89047 11.6617 4.99695 11.7063 5.07778 11.7835L6.45866 10.3367ZM4.84062 9.65925C4.23621 9.64055 3.64619 9.84573 3.1838 10.2354L4.47264 11.7648C4.55808 11.6928 4.66711 11.6548 4.77879 11.6583L4.84062 9.65925ZM9.53533 9.29298L7.53533 7.29298L6.12111 8.70719L8.12111 10.7072L9.53533 9.29298ZM7.7613 8.35974C8.09188 7.50212 8.50817 6.68006 9.00377 5.90599L7.31938 4.82755C6.75125 5.71489 6.27409 6.65729 5.89514 7.64042L7.7613 8.35974ZM9.00939 5.89701C9.69571 4.79965 10.6514 3.89612 11.7855 3.27236L10.8216 1.51993C9.38856 2.30812 8.18097 3.44984 7.31372 4.83649L9.00939 5.89701ZM11.7855 3.27236C12.9196 2.64861 14.1944 2.32537 15.4887 2.3334L15.5011 0.333436C13.8656 0.323292 12.2547 0.73174 10.8216 1.51993L11.7855 3.27236ZM14.4949 1.33342C14.4949 2.95058 14.0438 5.75375 10.938 7.83617L12.0518 9.49733C15.906 6.91308 16.4949 3.34293 16.4949 1.33342H14.4949ZM10.9605 7.82155C10.1749 8.3183 9.34147 8.735 8.47273 9.0654L9.1837 10.9348C10.1774 10.5568 11.1308 10.0802 12.0294 9.51195L10.9605 7.82155ZM6.82822 7.00008H3.49489V9.00008H6.82822V7.00008ZM3.49489 8.00008C4.47881 8.17868 4.47877 8.17887 4.47874 8.17905C4.47905 8.1774 4.47967 8.17417 4.48068 8.169C4.4827 8.15865 4.48613 8.1415 4.49101 8.11836C4.50079 8.072 4.51628 8.00213 4.53787 7.9151C4.58141 7.73955 4.64785 7.50186 4.73912 7.25024C4.94591 6.68014 5.19082 6.29398 5.38424 6.16458L4.2722 4.50225C3.49895 5.01953 3.07719 5.96669 2.85899 6.56826C2.73776 6.90247 2.65211 7.21021 2.59669 7.43361C2.5688 7.54606 2.5481 7.63905 2.53405 7.70568C2.52701 7.73904 2.52162 7.76593 2.5178 7.78548C2.51589 7.79526 2.51437 7.80322 2.51323 7.80926C2.51266 7.81227 2.51219 7.81481 2.51181 7.81685C2.51163 7.81787 2.51146 7.81877 2.51132 7.81954C2.51125 7.81993 2.51102 7.82115 2.51096 7.82148C2.51093 7.82164 2.51097 7.8214 2.51096 7.82148C2.51092 7.82169 2.51096 7.82148 3.49489 8.00008ZM5.38292 6.16547C5.46293 6.11213 5.62347 6.05082 5.89722 6.02538C6.16235 6.00073 6.46652 6.01584 6.77207 6.05521C7.07365 6.09408 7.35051 6.15311 7.55319 6.20309C7.65365 6.22786 7.73369 6.24986 7.78686 6.26511C7.8134 6.27273 7.83308 6.27861 7.84511 6.28227C7.85112 6.2841 7.85514 6.28533 7.85719 6.28597C7.85821 6.28629 7.85879 6.28648 7.85878 6.28648C7.85865 6.28644 7.85898 6.28655 7.85878 6.28648C7.85868 6.28645 7.85724 6.28599 7.85719 6.28597C7.85701 6.28591 7.85719 6.28597 8.16155 5.33342C8.46592 4.38086 8.46614 4.38093 8.46592 4.38086C8.46584 4.38083 8.46608 4.38092 8.46592 4.38086C8.46558 4.38076 8.46431 4.38035 8.4639 4.38022C8.46309 4.37996 8.46214 4.37966 8.46105 4.37932C8.45887 4.37863 8.45613 4.37777 8.45286 4.37675C8.44632 4.37471 8.43762 4.37202 8.42686 4.36875C8.40535 4.36221 8.37557 4.35333 8.33838 4.34266C8.2641 4.32135 8.15967 4.29273 8.032 4.26125C7.77843 4.19872 7.42446 4.12275 7.02771 4.07162C6.63492 4.021 6.17325 3.9911 5.71213 4.03396C5.25964 4.07602 4.73351 4.19471 4.27352 4.50137L5.38292 6.16547ZM7.82822 10.0001V13.3334H9.82822V10.0001H7.82822ZM8.82822 13.3334C9.00682 14.3173 9.00661 14.3173 9.00682 14.3173C9.00665 14.3173 9.0069 14.3172 9.00682 14.3173C9.00714 14.3172 9.00838 14.3171 9.00876 14.317C9.00953 14.3168 9.01043 14.3167 9.01145 14.3165C9.0135 14.3161 9.01603 14.3156 9.01905 14.3151C9.02508 14.3139 9.03304 14.3124 9.04282 14.3105C9.06238 14.3067 9.08926 14.3013 9.12262 14.2943C9.18925 14.2802 9.28224 14.2595 9.39469 14.2316C9.6181 14.1762 9.92583 14.0905 10.26 13.9693C10.8617 13.7511 11.8088 13.3294 12.3261 12.5561L10.6637 11.4441C10.5343 11.6375 10.1482 11.8824 9.57806 12.0892C9.32644 12.1805 9.08876 12.2469 8.9132 12.2904C8.82618 12.312 8.7563 12.3275 8.70994 12.3373C8.6868 12.3422 8.66966 12.3456 8.6593 12.3476C8.65413 12.3486 8.65067 12.3493 8.64902 12.3496C8.6492 12.3495 8.64962 12.3495 8.82822 13.3334ZM12.327 12.5548C12.6336 12.0948 12.7523 11.5687 12.7944 11.1162C12.8372 10.6551 12.8073 10.1934 12.7567 9.8006C12.7056 9.40385 12.6296 9.04987 12.5671 8.7963C12.5356 8.66864 12.507 8.5642 12.4857 8.48992C12.475 8.45273 12.4661 8.42296 12.4596 8.40145C12.4563 8.39069 12.4536 8.38198 12.4516 8.37544C12.4506 8.37217 12.4497 8.36944 12.449 8.36726C12.4487 8.36617 12.4484 8.36521 12.4481 8.3644C12.448 8.364 12.4479 8.36362 12.4478 8.36329C12.4477 8.36312 12.4478 8.36337 12.4478 8.36329C12.4477 8.36307 12.4475 8.36238 11.4949 8.66675C10.5423 8.97112 10.5423 8.97093 10.5422 8.97074C10.5428 8.97279 10.5442 8.97719 10.546 8.98319C10.5497 8.99522 10.5556 9.01491 10.5632 9.04144C10.5784 9.09461 10.6004 9.17466 10.6252 9.27511C10.6752 9.4778 10.7342 9.75465 10.7731 10.0562C10.8125 10.3618 10.8276 10.666 10.8029 10.9311C10.7775 11.2048 10.7162 11.3654 10.6628 11.4454L12.327 12.5548Z" fill="white"/>
</g>
</svg>
