<svg width="41" height="40" viewBox="0 0 41 40" fill="none" xmlns="http://www.w3.org/2000/svg">
<path d="M0.110352 8C0.110352 3.58172 3.69207 0 8.11035 0H32.1104C36.5286 0 40.1104 3.58172 40.1104 8V32C40.1104 36.4183 36.5286 40 32.1104 40H8.11035C3.69207 40 0.110352 36.4183 0.110352 32V8Z" fill="#ECFEFF" fill-opacity="0.05"/>
<path d="M15.4437 15.0417H15.1404V13.5833C15.1404 13.4286 15.0789 13.2803 14.9695 13.1709C14.8601 13.0615 14.7117 13 14.557 13C14.4023 13 14.2539 13.0615 14.1445 13.1709C14.0351 13.2803 13.9737 13.4286 13.9737 13.5833V15.0417H13.6937C13.539 15.0417 13.3906 15.1031 13.2812 15.2125C13.1718 15.3219 13.1104 15.4703 13.1104 15.625V23.2083C13.1104 23.363 13.1718 23.5114 13.2812 23.6208C13.3906 23.7302 13.539 23.7917 13.6937 23.7917H13.9737V25.1217C13.9737 25.2764 14.0351 25.4247 14.1445 25.5341C14.2539 25.6435 14.4023 25.705 14.557 25.705C14.7117 25.705 14.8601 25.6435 14.9695 25.5341C15.0789 25.4247 15.1404 25.2764 15.1404 25.1217V23.7917H15.4437C15.5984 23.7917 15.7468 23.7302 15.8562 23.6208C15.9656 23.5114 16.027 23.363 16.027 23.2083V15.625C16.027 15.4703 15.9656 15.3219 15.8562 15.2125C15.7468 15.1031 15.5984 15.0417 15.4437 15.0417Z" fill="#E8F9FF" fill-opacity="0.75"/>
<path d="M24.4854 14.1667H24.1938V13.5833C24.1938 13.4286 24.1323 13.2803 24.0229 13.1709C23.9135 13.0615 23.7651 13 23.6104 13C23.4557 13 23.3073 13.0615 23.1979 13.1709C23.0885 13.2803 23.0271 13.4286 23.0271 13.5833V14.1667H22.7354C22.5807 14.1667 22.4323 14.2281 22.3229 14.3375C22.2135 14.4469 22.1521 14.5953 22.1521 14.75V18.25C22.1521 18.4047 22.2135 18.5531 22.3229 18.6625C22.4323 18.7719 22.5807 18.8333 22.7354 18.8333H23.0271V19.4167C23.0271 19.5714 23.0885 19.7198 23.1979 19.8292C23.3073 19.9385 23.4557 20 23.6104 20C23.7651 20 23.9135 19.9385 24.0229 19.8292C24.1323 19.7198 24.1938 19.5714 24.1938 19.4167V18.8333H24.4854C24.6401 18.8333 24.7885 18.7719 24.8979 18.6625C25.0073 18.5531 25.0688 18.4047 25.0688 18.25V14.75C25.0688 14.5953 25.0073 14.4469 24.8979 14.3375C24.7885 14.2281 24.6401 14.1667 24.4854 14.1667Z" fill="#E8F9FF" fill-opacity="0.75"/>
<path d="M20.1104 17.9583H19.8188V16.7916C19.8188 16.6369 19.7573 16.4885 19.6479 16.3791C19.5385 16.2697 19.3901 16.2083 19.2354 16.2083C19.0807 16.2083 18.9323 16.2697 18.8229 16.3791C18.7136 16.4885 18.6521 16.6369 18.6521 16.7916V17.9583H18.3604C18.2057 17.9583 18.0573 18.0197 17.9479 18.1291C17.8386 18.2385 17.7771 18.3869 17.7771 18.5416V22.0416C17.7771 22.1963 17.8386 22.3447 17.9479 22.4541C18.0573 22.5635 18.2057 22.6249 18.3604 22.6249H18.6521V23.7916C18.6521 23.9463 18.7136 24.0947 18.8229 24.2041C18.9323 24.3135 19.0807 24.3749 19.2354 24.3749C19.3901 24.3749 19.5385 24.3135 19.6479 24.2041C19.7573 24.0947 19.8188 23.9463 19.8188 23.7916V22.6249H20.1104C20.2651 22.6249 20.4135 22.5635 20.5229 22.4541C20.6323 22.3447 20.6938 22.1963 20.6938 22.0416V18.5416C20.6938 18.3869 20.6323 18.2385 20.5229 18.1291C20.4135 18.0197 20.2651 17.9583 20.1104 17.9583Z" fill="#E8F9FF" fill-opacity="0.75"/>
<path d="M27.1104 24.5793C27.1104 23.6518 26.1888 22.9168 25.0571 22.9168C24.5496 22.9168 24.1704 22.6426 24.1704 22.3918C24.1704 22.1409 24.5496 21.8726 25.0804 21.8726C25.2411 21.8666 25.4009 21.8995 25.5462 21.9686C25.6914 22.0376 25.8178 22.1408 25.9146 22.2693C25.9609 22.3306 26.0189 22.3821 26.0852 22.421C26.1514 22.4599 26.2247 22.4853 26.3008 22.4959C26.3769 22.5065 26.4544 22.5019 26.5287 22.4826C26.6031 22.4632 26.6729 22.4294 26.7342 22.383C26.7955 22.3367 26.847 22.2787 26.8859 22.2125C26.9248 22.1462 26.9502 22.0729 26.9608 21.9968C26.9713 21.9207 26.9668 21.8432 26.9475 21.7689C26.9281 21.6945 26.8943 21.6247 26.8479 21.5634C26.5465 21.1691 26.1212 20.8876 25.6404 20.7643V20.5543C25.6404 20.3996 25.579 20.2512 25.4696 20.1418C25.3602 20.0324 25.2118 19.9709 25.0571 19.9709C24.9024 19.9709 24.754 20.0324 24.6446 20.1418C24.5352 20.2512 24.4738 20.3996 24.4738 20.5543V20.7759C24.0897 20.8424 23.7389 21.0351 23.4768 21.3236C23.2147 21.6121 23.0565 21.9798 23.0271 22.3684C23.0271 23.3193 23.9254 24.0601 25.0804 24.0601C25.5879 24.0601 25.9671 24.3343 25.9671 24.5793C25.9671 24.8243 25.5879 25.1043 25.0571 25.1043C24.8918 25.1131 24.7269 25.0816 24.5765 25.0125C24.4261 24.9434 24.2947 24.8388 24.1938 24.7076C24.1489 24.6429 24.0913 24.5879 24.0246 24.546C23.9579 24.5041 23.8834 24.4762 23.8056 24.4639C23.7278 24.4516 23.6483 24.4551 23.5719 24.4744C23.4955 24.4936 23.4238 24.5281 23.3611 24.5758C23.2985 24.6235 23.2461 24.6834 23.2072 24.7519C23.1683 24.8204 23.1436 24.8961 23.1348 24.9744C23.1259 25.0526 23.133 25.1319 23.1556 25.2074C23.1782 25.2828 23.2158 25.3529 23.2663 25.4134C23.5657 25.8088 23.9921 26.0889 24.4738 26.2068V26.4168C24.4738 26.5715 24.5352 26.7199 24.6446 26.8293C24.754 26.9387 24.9024 27.0001 25.0571 27.0001C25.2118 27.0001 25.3602 26.9387 25.4696 26.8293C25.579 26.7199 25.6404 26.5715 25.6404 26.4168V26.2009C26.0333 26.138 26.393 25.9431 26.6602 25.6483C26.9275 25.3535 27.0862 24.9764 27.1104 24.5793Z" fill="#E8F9FF" fill-opacity="0.75"/>
</svg>
