<svg width="127" height="58" viewBox="0 0 127 58" fill="none" xmlns="http://www.w3.org/2000/svg">
<path d="M31.3865 39.8757C31.3865 41.8244 30.8594 43.4536 29.8052 44.7633C28.7829 46.0412 27.3933 46.9995 25.6363 47.6384C23.8793 48.2773 21.9466 48.5968 19.8382 48.5968H3.25844V14.5748H22.1862C23.7834 14.5748 25.1571 15.0061 26.3071 15.8686C27.4891 16.6992 28.3836 17.7854 28.9906 19.1271C29.6295 20.4688 29.9489 21.8584 29.9489 23.296C29.9489 24.8932 29.5336 26.4266 28.703 27.8961C27.8725 29.3337 26.6585 30.4198 25.0613 31.1546C27.0099 31.7296 28.5433 32.7518 29.6614 34.2213C30.8114 35.6908 31.3865 37.5756 31.3865 39.8757ZM23.3841 38.2944C23.3841 37.5596 23.2404 36.9207 22.9529 36.3776C22.6653 35.8026 22.282 35.3554 21.8028 35.0359C21.3556 34.6845 20.8125 34.5088 20.1736 34.5088H11.117V41.9362H19.8382C20.509 41.9362 21.1 41.7764 21.6111 41.457C22.1542 41.1375 22.5855 40.7063 22.9049 40.1632C23.2244 39.6201 23.3841 38.9972 23.3841 38.2944ZM11.117 21.2834V28.3274H18.8319C19.4069 28.3274 19.934 28.1996 20.4132 27.944C20.9243 27.6885 21.3396 27.3051 21.6591 26.794C21.9785 26.2509 22.1382 25.5801 22.1382 24.7814C22.1382 24.0147 21.9945 23.3758 21.707 22.8647C21.4514 22.3536 21.1 21.9702 20.6528 21.7147C20.2055 21.4271 19.6944 21.2834 19.1194 21.2834H11.117ZM35.3921 48.5968V23.4397H43.0591V48.5968H35.3921ZM35.3921 20.5646V13.6165H43.0591V20.5646H35.3921ZM64.5998 47.2551C63.897 47.5426 63.1143 47.8301 62.2518 48.1176C61.4212 48.4051 60.5427 48.6287 59.6163 48.7885C58.6899 48.9801 57.7794 49.076 56.885 49.076C55.6072 49.076 54.4252 48.8683 53.339 48.453C52.2848 48.0058 51.4383 47.287 50.7994 46.2967C50.1924 45.3064 49.8889 43.9966 49.8889 42.3674V29.2378H46.6784V23.4397H49.8889V15.4374H57.5558V23.4397H62.6831V29.2378H57.5558V39.7319C57.5558 40.5625 57.7635 41.1695 58.1788 41.5528C58.5941 41.9042 59.1212 42.0799 59.7601 42.0799C60.3031 42.0799 60.8782 41.9841 61.4851 41.7924C62.124 41.6007 62.6671 41.3931 63.1143 41.1695L64.5998 47.2551Z" fill="white"/>
<path d="M82.1291 28.2181L70.124 15.8418H81.139L93.5154 28.2181L81.0152 40.7183H70.124L82.1291 28.2181Z" fill="white"/>
<path d="M114.803 28.3419L126.808 40.7183H115.793L103.417 28.3419L115.917 15.8417H126.808L114.803 28.3419Z" fill="white"/>
<path d="M98.2187 44.8025L85.8423 56.8076V45.7926L98.2187 33.4162L110.719 45.9163V56.8076L98.2187 44.8025Z" fill="white"/>
<path d="M98.2187 12.0051L85.8423 0V11.015L98.2187 23.3914L110.719 10.8912V0L98.2187 12.0051Z" fill="white"/>
</svg>
