<svg width="34" height="34" viewBox="0 0 34 34" fill="none" xmlns="http://www.w3.org/2000/svg">
<path fill-rule="evenodd" clip-rule="evenodd" d="M18.9939 16.7991C18.9939 21.1904 15.4583 24.75 11.0972 24.75C6.73605 24.75 3.2002 21.1904 3.2002 16.7991C3.2002 12.408 6.73578 8.84799 11.0972 8.84799C15.4586 8.84799 18.9939 12.408 18.9939 16.7991ZM27.6568 16.7991C27.6568 20.9325 25.889 24.2845 23.7084 24.2845C21.5276 24.2845 19.7598 20.9325 19.7598 16.7991C19.7598 12.6658 21.5273 9.31374 23.7081 9.31374C25.8887 9.31374 27.6568 12.6647 27.6568 16.7991ZM29.8115 23.5049C30.5786 23.5049 31.2002 20.5016 31.2002 16.7991C31.2002 13.0956 30.5783 10.0934 29.8115 10.0934C29.0448 10.0934 28.423 13.0959 28.423 16.7991C28.423 20.5024 29.0445 23.5049 29.8115 23.5049Z" fill="white"/>
</svg>
