<svg width="56" height="56" viewBox="0 0 56 56" fill="none" xmlns="http://www.w3.org/2000/svg">
<mask id="mask0_107_276" style="mask-type:luminance" maskUnits="userSpaceOnUse" x="0" y="0" width="56" height="56">
<path d="M44 0H12C5.37258 0 0 5.37258 0 12V44C0 50.6274 5.37258 56 12 56H44C50.6274 56 56 50.6274 56 44V12C56 5.37258 50.6274 0 44 0Z" fill="white"/>
</mask>
<g mask="url(#mask0_107_276)">
<path d="M56 0H0V56H56V0Z" fill="#848484"/>
</g>
<path fill-rule="evenodd" clip-rule="evenodd" d="M25.5778 14.21C18.9936 15.4046 14.2 21.1356 14.2 27.8125C14.2 35.7702 20.8148 42.0022 28.8 41.5678C32.2718 41.3789 35.2336 40.0492 37.7453 37.5517C44.9909 30.3472 42.108 18.0349 32.4 14.7226C30.4318 14.0512 27.6184 13.8397 25.5778 14.21ZM25.4666 15.9673C23.2498 16.4417 21.1736 17.5728 19.5168 19.2088C17.1541 21.5414 15.9333 24.435 15.9333 27.7018C15.9333 31.1158 17.0722 33.9421 19.3962 36.2957C21.7468 38.6761 24.6353 39.8792 28 39.8792C31.3236 39.8792 34.1994 38.691 36.539 36.3516C38.887 34.0036 40.0666 31.1481 40.0666 27.8125C40.0666 24.4889 38.8785 21.613 36.539 19.2734C34.833 17.5674 32.7366 16.4276 30.4389 15.9565C29.154 15.693 26.7233 15.6984 25.4666 15.9673ZM31.5333 23.5458V24.4125H32.6996H33.866L30.6337 27.6448L27.4014 30.877L25.5656 29.0448L23.7298 27.2125L21.8962 29.0494L20.0628 30.8865L20.667 31.4796L21.2713 32.0726L22.501 30.843L23.7306 29.6133L25.5658 31.4449L27.4009 33.2765L31.1337 29.5454L34.8666 25.8142V26.7801V27.7458H35.7333H36.6V25.2125V22.6792H34.0666H31.5333V23.5458Z" fill="white"/>
</svg>
