<svg width="25" height="25" viewBox="0 0 25 25" fill="none" xmlns="http://www.w3.org/2000/svg">
<mask id="mask0_6_25" style="mask-type:alpha" maskUnits="userSpaceOnUse" x="0" y="0" width="25" height="25">
<rect x="0.396805" y="0.877197" width="24" height="24" fill="#D9D9D9"/>
</mask>
<g mask="url(#mask0_6_25)">
<path d="M12.3968 21.8772C9.88014 21.8772 7.75097 21.4897 6.0093 20.7147C4.26764 19.9397 3.3968 18.9939 3.3968 17.8772V7.8772C3.3968 6.7772 4.27597 5.83553 6.0343 5.0522C7.79264 4.26886 9.91347 3.8772 12.3968 3.8772C14.8801 3.8772 17.001 4.26886 18.7593 5.0522C20.5176 5.83553 21.3968 6.7772 21.3968 7.8772V17.8772C21.3968 18.9939 20.526 19.9397 18.7843 20.7147C17.0426 21.4897 14.9135 21.8772 12.3968 21.8772ZM12.3968 9.9022C13.8801 9.9022 15.3718 9.6897 16.8718 9.2647C18.3718 8.8397 19.2135 8.38553 19.3968 7.9022C19.2135 7.41886 18.376 6.96053 16.8843 6.5272C15.3926 6.09386 13.8968 5.8772 12.3968 5.8772C10.8801 5.8772 9.39264 6.0897 7.9343 6.5147C6.47597 6.9397 5.63014 7.4022 5.3968 7.9022C5.63014 8.4022 6.47597 8.86053 7.9343 9.2772C9.39264 9.69386 10.8801 9.9022 12.3968 9.9022ZM12.3968 14.8772C13.0968 14.8772 13.7718 14.8439 14.4218 14.7772C15.0718 14.7105 15.6926 14.6147 16.2843 14.4897C16.876 14.3647 17.4343 14.2105 17.9593 14.0272C18.4843 13.8439 18.9635 13.6355 19.3968 13.4022V10.4022C18.9635 10.6355 18.4843 10.8439 17.9593 11.0272C17.4343 11.2105 16.876 11.3647 16.2843 11.4897C15.6926 11.6147 15.0718 11.7105 14.4218 11.7772C13.7718 11.8439 13.0968 11.8772 12.3968 11.8772C11.6968 11.8772 11.0135 11.8439 10.3468 11.7772C9.68014 11.7105 9.05097 11.6147 8.4593 11.4897C7.86764 11.3647 7.31347 11.2105 6.7968 11.0272C6.28014 10.8439 5.81347 10.6355 5.3968 10.4022V13.4022C5.81347 13.6355 6.28014 13.8439 6.7968 14.0272C7.31347 14.2105 7.86764 14.3647 8.4593 14.4897C9.05097 14.6147 9.68014 14.7105 10.3468 14.7772C11.0135 14.8439 11.6968 14.8772 12.3968 14.8772ZM12.3968 19.8772C13.1635 19.8772 13.9426 19.8189 14.7343 19.7022C15.526 19.5855 16.2551 19.4314 16.9218 19.2397C17.5885 19.048 18.1468 18.8314 18.5968 18.5897C19.0468 18.348 19.3135 18.1022 19.3968 17.8522V15.4022C18.9635 15.6355 18.4843 15.8439 17.9593 16.0272C17.4343 16.2105 16.876 16.3647 16.2843 16.4897C15.6926 16.6147 15.0718 16.7105 14.4218 16.7772C13.7718 16.8439 13.0968 16.8772 12.3968 16.8772C11.6968 16.8772 11.0135 16.8439 10.3468 16.7772C9.68014 16.7105 9.05097 16.6147 8.4593 16.4897C7.86764 16.3647 7.31347 16.2105 6.7968 16.0272C6.28014 15.8439 5.81347 15.6355 5.3968 15.4022V17.8772C5.48014 18.1272 5.74264 18.3689 6.1843 18.6022C6.62597 18.8355 7.18014 19.048 7.84681 19.2397C8.51347 19.4314 9.2468 19.5855 10.0468 19.7022C10.8468 19.8189 11.6301 19.8772 12.3968 19.8772Z" fill="white"/>
</g>
</svg>
