<svg width="25" height="25" viewBox="0 0 25 25" fill="none" xmlns="http://www.w3.org/2000/svg">
<mask id="mask0_5_13" style="mask-type:alpha" maskUnits="userSpaceOnUse" x="0" y="0" width="25" height="25">
<rect x="0.396805" y="0.723022" width="24" height="24" fill="#D9D9D9"/>
</mask>
<g mask="url(#mask0_5_13)">
<path d="M5.3968 21.723C4.8468 21.723 4.37597 21.5272 3.9843 21.1355C3.59264 20.7439 3.3968 20.273 3.3968 19.723V15.723H5.3968V19.723H19.3968V5.72302H5.3968V9.72302H3.3968V5.72302C3.3968 5.17302 3.59264 4.70219 3.9843 4.31052C4.37597 3.91886 4.8468 3.72302 5.3968 3.72302H19.3968C19.9468 3.72302 20.4176 3.91886 20.8093 4.31052C21.201 4.70219 21.3968 5.17302 21.3968 5.72302V19.723C21.3968 20.273 21.201 20.7439 20.8093 21.1355C20.4176 21.5272 19.9468 21.723 19.3968 21.723H5.3968ZM10.8968 17.723L9.4968 16.273L12.0468 13.723H3.3968V11.723H12.0468L9.4968 9.17302L10.8968 7.72302L15.8968 12.723L10.8968 17.723Z" fill="white"/>
</g>
</svg>
