<svg width="34" height="34" viewBox="0 0 34 34" fill="none" xmlns="http://www.w3.org/2000/svg">
<path fill-rule="evenodd" clip-rule="evenodd" d="M16.7998 30.8C24.5317 30.8 30.7998 24.5319 30.7998 16.8C30.7998 9.068 24.5317 2.79999 16.7998 2.79999C9.06781 2.79999 2.7998 9.068 2.7998 16.8C2.7998 24.5319 9.06781 30.8 16.7998 30.8ZM17.3014 13.1354C15.9398 13.7018 13.2183 14.874 9.137 16.6521C8.47426 16.9158 8.1271 17.1736 8.09549 17.4256C8.04208 17.8518 8.57563 18.0195 9.30218 18.248C9.401 18.2791 9.50341 18.3113 9.60838 18.3453C10.3232 18.5777 11.2848 18.8496 11.7846 18.8604C12.2381 18.8702 12.7441 18.6833 13.3029 18.2995C17.1162 15.7255 19.0846 14.4245 19.2081 14.3963C19.2953 14.3766 19.4161 14.3517 19.498 14.4245C19.5799 14.4973 19.5718 14.635 19.5631 14.672C19.5103 14.8974 17.4159 16.8444 16.3321 17.8521C15.9942 18.1662 15.7546 18.389 15.7056 18.4399C15.5958 18.5539 15.4839 18.6617 15.3764 18.7653C14.7124 19.4055 14.2143 19.8856 15.404 20.6696C15.9758 21.0463 16.4331 21.3578 16.8895 21.6686C17.3879 22.0081 17.8851 22.3466 18.5284 22.7683C18.6922 22.8757 18.8487 22.9873 19.0012 23.0959C19.5812 23.5095 20.1023 23.881 20.7461 23.8217C21.1202 23.7874 21.5066 23.4356 21.7029 22.3864C22.1667 19.907 23.0784 14.5348 23.2891 12.3211C23.3076 12.1272 23.2843 11.879 23.2657 11.77C23.2469 11.661 23.208 11.5058 23.0663 11.3909C22.8986 11.2547 22.6398 11.226 22.5238 11.2281C21.9973 11.2374 21.1895 11.5183 17.3014 13.1354Z" fill="white"/>
</svg>
