<svg width="34" height="34" viewBox="0 0 34 34" fill="none" xmlns="http://www.w3.org/2000/svg">
<path d="M11.5918 28.1764C22.1534 28.1764 27.9326 19.418 27.9326 11.8356C27.9326 11.5892 27.9326 11.3428 27.9214 11.0964C29.0414 10.29 30.0158 9.27078 30.7886 8.1172C29.7582 8.5764 28.6494 8.8788 27.4846 9.0244C28.6718 8.3188 29.579 7.1876 30.0158 5.8436C28.907 6.5044 27.675 6.9748 26.3646 7.2324C25.3118 6.1124 23.8222 5.418 22.1758 5.418C19.0062 5.418 16.4302 7.994 16.4302 11.1636C16.4302 11.6116 16.4862 12.0484 16.5758 12.474C11.8046 12.2388 7.571 9.94279 4.7374 6.4708C4.2446 7.322 3.9646 8.3076 3.9646 9.3604C3.9646 11.354 4.9838 13.1124 6.5182 14.1428C5.5774 14.1092 4.6926 13.8516 3.9198 13.426C3.9198 13.4484 3.9198 13.4708 3.9198 13.5044C3.9198 16.282 5.9022 18.6116 8.523 19.138C8.0414 19.2724 7.5374 19.3396 7.011 19.3396C6.6414 19.3396 6.283 19.306 5.9358 19.2388C6.6638 21.5236 8.7918 23.1812 11.3006 23.226C9.3294 24.7716 6.8542 25.69 4.1662 25.69C3.707 25.69 3.2478 25.6676 2.7998 25.6116C5.331 27.2244 8.355 28.1764 11.5918 28.1764Z" fill="white"/>
</svg>
