<?xml version="1.0" standalone="no"?>
<!DOCTYPE svg PUBLIC "-//W3C//DTD SVG 20010904//EN"
 "http://www.w3.org/TR/2001/REC-SVG-20010904/DTD/svg10.dtd">
<svg version="1.0" xmlns="http://www.w3.org/2000/svg"
 width="128.000000pt" height="128.000000pt" viewBox="0 0 128.000000 128.000000"
 preserveAspectRatio="xMidYMid meet">

<g transform="translate(0.000000,128.000000) scale(0.100000,-0.100000)"
fill="#000000" stroke="none">
<path d="M208 1270 c-71 -11 -106 -29 -146 -74 -55 -63 -57 -80 -57 -556 0
-337 3 -445 14 -480 17 -59 82 -124 141 -141 65 -20 895 -20 960 0 59 17 124
82 141 141 20 65 20 895 0 960 -16 56 -82 123 -136 140 -48 16 -827 24 -917
10z m496 -562 l237 -242 -3 -60 -3 -61 -54 -3 -54 -3 -94 93 -94 93 -49 -52
c-43 -44 -50 -57 -50 -92 l0 -41 -100 0 -100 0 0 67 0 68 87 87 87 88 -87 88
-87 89 0 62 0 61 64 0 64 0 236 -242z m234 181 l3 -56 -62 -66 c-33 -37 -65
-67 -70 -67 -4 0 -9 24 -11 53 l-3 52 -54 3 -54 3 69 70 69 70 55 -3 55 -3 3
-56z"/>
</g>
</svg>
